<svg width="171" height="48" viewBox="0 0 171 48" fill="none" xmlns="http://www.w3.org/2000/svg">
<path d="M5.51641 36L14.4964 23.34L5.45641 10.52H10.0964L17.0364 20.4L23.2764 10.52H27.8764L19.1364 23.28L28.4364 36H23.7164L16.6364 26.3L10.1164 36H5.51641Z" fill="#21C978"/>
<path d="M35.2642 35.98C32.9576 35.98 31.1842 35.4933 29.9442 34.52C28.7042 33.5467 27.9709 32.0333 27.7442 29.98C27.7042 29.4867 27.8109 29.1067 28.0642 28.84C28.3176 28.5733 28.6909 28.44 29.1842 28.44C30.0909 28.44 30.5909 28.9267 30.6842 29.9C30.8576 31.0867 31.2842 31.9067 31.9642 32.36C32.6576 32.8133 33.7576 33.04 35.2642 33.04H39.8242C41.6109 33.04 42.8309 32.7133 43.4842 32.06C44.1509 31.3933 44.4842 30.1867 44.4842 28.44C44.4842 26.6933 44.1509 25.4867 43.4842 24.82C42.8309 24.1533 41.6109 23.82 39.8242 23.82H36.5442C35.5576 23.82 35.0642 23.3333 35.0642 22.36C35.0642 21.3733 35.5576 20.88 36.5442 20.88H41.0242C42.0776 20.88 42.8109 20.5 43.2242 19.74C43.6376 18.98 43.8442 17.9067 43.8442 16.52C43.8442 14.88 43.5376 13.76 42.9242 13.16C42.3242 12.56 41.2109 12.26 39.5842 12.26H35.7042C34.3576 12.26 33.3642 12.46 32.7242 12.86C32.0976 13.26 31.7109 13.9867 31.5642 15.04C31.4309 16 30.9176 16.48 30.0242 16.48C29.5309 16.48 29.1576 16.3467 28.9042 16.08C28.6509 15.8133 28.5576 15.4333 28.6242 14.94C28.8509 13.0467 29.5442 11.64 30.7042 10.72C31.8776 9.78666 33.5442 9.32 35.7042 9.32H39.5842C42.0376 9.32 43.8509 9.90666 45.0242 11.08C46.1976 12.2533 46.7842 14.0667 46.7842 16.52C46.7842 19.0533 45.9976 20.8267 44.4242 21.84C45.4509 22.4133 46.2042 23.2467 46.6842 24.34C47.1776 25.42 47.4242 26.7867 47.4242 28.44C47.4242 31.0133 46.8109 32.9133 45.5842 34.14C44.3576 35.3667 42.4376 35.98 39.8242 35.98H35.2642Z" fill="#2F51CC"/>
<path d="M56.2266 35.988C54.8186 35.988 53.7546 35.684 53.0346 35.076C52.3226 34.468 51.9186 33.516 51.8226 32.22C51.8066 31.972 51.8666 31.78 52.0026 31.644C52.1386 31.508 52.3266 31.44 52.5666 31.44C52.8066 31.44 52.9866 31.504 53.1066 31.632C53.2346 31.76 53.3146 31.944 53.3466 32.184C53.4026 33.04 53.6466 33.636 54.0786 33.972C54.5106 34.308 55.2266 34.476 56.2266 34.476H59.6826C60.7866 34.476 61.5466 34.268 61.9626 33.852C62.3866 33.428 62.5986 32.672 62.5986 31.584C62.5986 30.48 62.3826 29.72 61.9506 29.304C61.5266 28.88 60.7706 28.668 59.6826 28.668H56.5026C55.0546 28.668 53.9906 28.328 53.3106 27.648C52.6306 26.96 52.2906 25.896 52.2906 24.456C52.2906 23.016 52.6266 21.96 53.2986 21.288C53.9786 20.608 55.0386 20.268 56.4786 20.268H59.6706C60.9906 20.268 61.9866 20.556 62.6586 21.132C63.3386 21.7 63.7266 22.592 63.8226 23.808C63.8466 24.048 63.7906 24.24 63.6546 24.384C63.5186 24.52 63.3266 24.588 63.0786 24.588C62.8466 24.588 62.6666 24.524 62.5386 24.396C62.4106 24.26 62.3346 24.076 62.3106 23.844C62.2466 23.068 62.0146 22.532 61.6146 22.236C61.2146 21.932 60.5666 21.78 59.6706 21.78H56.4786C55.4546 21.78 54.7506 21.976 54.3666 22.368C53.9906 22.752 53.8026 23.448 53.8026 24.456C53.8026 25.464 53.9946 26.168 54.3786 26.568C54.7706 26.96 55.4786 27.156 56.5026 27.156H59.6826C61.1946 27.156 62.3106 27.516 63.0306 28.236C63.7506 28.948 64.1106 30.064 64.1106 31.584C64.1106 33.096 63.7506 34.208 63.0306 34.92C62.3186 35.632 61.2026 35.988 59.6826 35.988H56.2266ZM72.4111 36C70.8831 36 69.7591 35.64 69.0391 34.92C68.3191 34.2 67.9591 33.084 67.9591 31.572V28.836C67.9591 27.292 68.3191 26.164 69.0391 25.452C69.7591 24.732 70.8831 24.376 72.4111 24.384H74.3791C75.9151 24.384 77.0391 24.744 77.7511 25.464C78.4711 26.176 78.8311 27.3 78.8311 28.836V31.548C78.8311 33.076 78.4711 34.2 77.7511 34.92C77.0391 35.64 75.9151 36 74.3791 36H72.4111ZM69.4711 31.572C69.4711 32.668 69.6831 33.428 70.1071 33.852C70.5391 34.276 71.3071 34.488 72.4111 34.488H74.3791C75.4911 34.488 76.2591 34.276 76.6831 33.852C77.1071 33.42 77.3191 32.652 77.3191 31.548V28.836C77.3191 27.724 77.1071 26.956 76.6831 26.532C76.2591 26.108 75.4911 25.896 74.3791 25.896H72.4111C71.6751 25.888 71.0911 25.976 70.6591 26.16C70.2351 26.336 69.9311 26.64 69.7471 27.072C69.5631 27.496 69.4711 28.084 69.4711 28.836V31.572ZM86.4938 36C85.3338 36 84.4738 35.724 83.9138 35.172C83.3618 34.612 83.0858 33.756 83.0858 32.604V20.028C83.0858 19.524 83.3378 19.272 83.8418 19.272C84.3458 19.272 84.5978 19.524 84.5978 20.028V32.604C84.5978 33.332 84.7298 33.828 84.9938 34.092C85.2578 34.356 85.7538 34.488 86.4818 34.488C87.0018 34.488 87.2618 34.74 87.2618 35.244C87.2778 35.748 87.0218 36 86.4938 36ZM100.14 24.384C100.644 24.384 100.896 24.636 100.896 25.14V35.244C100.896 35.748 100.644 36 100.14 36C99.6361 36 99.3841 35.748 99.3841 35.244V34.344C98.6001 35.448 97.2681 36 95.3881 36H94.7161C93.1881 36 92.0641 35.64 91.3441 34.92C90.6241 34.2 90.2641 33.076 90.2641 31.548V25.14C90.2641 24.636 90.5161 24.384 91.0201 24.384C91.5241 24.384 91.7761 24.636 91.7761 25.14V31.548C91.7761 32.652 91.9881 33.42 92.4121 33.852C92.8441 34.276 93.6121 34.488 94.7161 34.488H95.3881C96.5321 34.488 97.4601 34.32 98.1721 33.984C98.8921 33.64 99.2961 33.116 99.3841 32.412V25.14C99.3841 24.636 99.6361 24.384 100.14 24.384ZM110.362 36C108.85 36 107.742 35.648 107.038 34.944C106.334 34.24 105.982 33.14 105.982 31.644V25.896H104.638C104.134 25.896 103.882 25.644 103.882 25.14C103.882 24.636 104.134 24.384 104.638 24.384H105.982V22.08C105.982 21.576 106.234 21.324 106.738 21.324C107.242 21.324 107.494 21.576 107.494 22.08V24.384H110.422C110.926 24.384 111.178 24.636 111.178 25.14C111.178 25.644 110.926 25.896 110.422 25.896H107.494V31.644C107.494 32.724 107.702 33.468 108.118 33.876C108.534 34.284 109.282 34.488 110.362 34.488C110.626 34.488 110.818 34.552 110.938 34.68C111.066 34.8 111.13 34.988 111.13 35.244C111.13 35.748 110.874 36 110.362 36ZM115.124 22.272C114.5 22.272 114.188 21.956 114.188 21.324V20.724C114.188 20.108 114.5 19.8 115.124 19.8H115.712C116.312 19.8 116.612 20.108 116.612 20.724V21.324C116.612 21.956 116.312 22.272 115.712 22.272H115.124ZM115.412 36C114.908 36 114.656 35.748 114.656 35.244V25.14C114.656 24.636 114.908 24.384 115.412 24.384C115.916 24.384 116.168 24.636 116.168 25.14V35.244C116.168 35.748 115.916 36 115.412 36ZM124.864 36C123.336 36 122.212 35.64 121.492 34.92C120.772 34.2 120.412 33.084 120.412 31.572V28.836C120.412 27.292 120.772 26.164 121.492 25.452C122.212 24.732 123.336 24.376 124.864 24.384H126.832C128.368 24.384 129.492 24.744 130.204 25.464C130.924 26.176 131.284 27.3 131.284 28.836V31.548C131.284 33.076 130.924 34.2 130.204 34.92C129.492 35.64 128.368 36 126.832 36H124.864ZM121.924 31.572C121.924 32.668 122.136 33.428 122.56 33.852C122.992 34.276 123.76 34.488 124.864 34.488H126.832C127.944 34.488 128.712 34.276 129.136 33.852C129.56 33.42 129.772 32.652 129.772 31.548V28.836C129.772 27.724 129.56 26.956 129.136 26.532C128.712 26.108 127.944 25.896 126.832 25.896H124.864C124.128 25.888 123.544 25.976 123.112 26.16C122.688 26.336 122.384 26.64 122.2 27.072C122.016 27.496 121.924 28.084 121.924 28.836V31.572ZM136.295 36C135.791 36 135.539 35.748 135.539 35.244V25.14C135.539 24.636 135.791 24.384 136.295 24.384C136.799 24.384 137.051 24.636 137.051 25.14V26.028C137.843 24.932 139.175 24.384 141.047 24.384H141.719C143.255 24.384 144.379 24.744 145.091 25.464C145.811 26.176 146.171 27.3 146.171 28.836V35.244C146.171 35.748 145.919 36 145.415 36C144.911 36 144.659 35.748 144.659 35.244V28.836C144.659 27.724 144.443 26.956 144.011 26.532C143.587 26.108 142.823 25.896 141.719 25.896H141.047C139.903 25.896 138.975 26.064 138.263 26.4C137.551 26.736 137.147 27.26 137.051 27.972V35.244C137.051 35.748 136.799 36 136.295 36ZM153.213 35.988C152.221 35.988 151.453 35.78 150.909 35.364C150.365 34.94 150.029 34.3 149.901 33.444C149.869 33.188 149.921 32.992 150.057 32.856C150.201 32.712 150.397 32.64 150.645 32.64C150.893 32.64 151.073 32.704 151.185 32.832C151.305 32.952 151.389 33.136 151.437 33.384C151.517 33.792 151.693 34.076 151.965 34.236C152.237 34.396 152.653 34.476 153.213 34.476H157.149C157.861 34.476 158.345 34.348 158.601 34.092C158.857 33.836 158.985 33.352 158.985 32.64C158.985 31.928 158.857 31.444 158.601 31.188C158.345 30.932 157.861 30.804 157.149 30.804H153.273C152.193 30.804 151.385 30.54 150.849 30.012C150.321 29.484 150.057 28.68 150.057 27.6C150.057 26.496 150.321 25.684 150.849 25.164C151.377 24.636 152.185 24.372 153.273 24.372H157.029C158.869 24.372 159.909 25.168 160.149 26.76C160.197 27.008 160.149 27.204 160.005 27.348C159.869 27.484 159.673 27.552 159.417 27.552C159.177 27.552 158.997 27.492 158.877 27.372C158.765 27.244 158.681 27.064 158.625 26.832C158.553 26.472 158.397 26.224 158.157 26.088C157.917 25.952 157.541 25.884 157.029 25.884H153.273C152.609 25.884 152.157 26 151.917 26.232C151.685 26.464 151.569 26.92 151.569 27.6C151.569 28.248 151.689 28.692 151.929 28.932C152.169 29.172 152.617 29.292 153.273 29.292H157.149C158.285 29.292 159.125 29.568 159.669 30.12C160.221 30.664 160.497 31.504 160.497 32.64C160.497 33.776 160.221 34.62 159.669 35.172C159.125 35.716 158.285 35.988 157.149 35.988H153.213Z" fill="#2F51CC"/>
</svg>
